# xmcd
#
# Track frame offsets: 
#        150
#        20909
#        38363
#        56490
#        73269
#        91288
#        108017
#        129680
#        149294
#        165692
#        178453
#        201835
#
# Disc length: 2981 seconds
#
# Revision: 0
# Processed by: cddbd v1.5.2PL0 Copyright (c) Steve Scherf et al.
# Submitted via: ExactAudioCopy v0.99pb1
#
DISCID=ad0ba30c
DTITLE=Angela Strehli Band - Live From Rancho Nicasio
DYEAR=2001
DGENRE=Blues
TTITLE0=Big Town Playboy
TTITLE1=Just What It Takes
TTITLE2=Kiddeo
TTITLE3=A Stand By Your Woman Man
TTITLE4=Just The One I've Been Looking For
TTITLE5=Clean Up Woman
TTITLE6=Stranger Blues
TTITLE7=Tell Me Why
TTITLE8=Slipped, Tripped, Fell In Love
TTITLE9=It Hurts Me Too
TTITLE10=Howling For My Darling
TTITLE11=You Don't Love Me
EXTD=
EXTT0=
EXTT1=
EXTT2=
EXTT3=
EXTT4=
EXTT5=
EXTT6=
EXTT7=
EXTT8=
EXTT9=
EXTT10=
EXTT11=
PLAYORDER=
